<?xml version="1.0" encoding="UTF-8"?>
<!-- Generated by Pixelmator Pro 3.7 -->
<svg width="288" height="289" viewBox="0 0 288 289" xmlns="http://www.w3.org/2000/svg">
    <g id="Group">
        <path id="Path" fill="#000000" stroke="none" d="M 119.866669 39.53334 C 91.466667 45.933334 60.933334 68.866669 29.6 107.53334 C 16.4 123.53334 12 130.866669 12 136.199997 C 12 144.600006 51.466667 188.600006 78.533333 210.466675 C 93.866669 223 109.599998 229.666672 130.933334 233 C 142.133331 234.733337 150.266663 238.199997 160.666672 245.533325 C 181.066666 260.200012 220.666672 282.200012 222.800003 280.066681 C 223.46666 279.399994 221.199997 272.333344 217.866669 264.333344 C 204.399994 231.399994 203.333328 226.333328 208 214.066666 C 212 203.399994 222.53334 190.466675 245.066666 168.333344 C 265.066681 148.866669 272 140.199997 272 134.733337 C 272 123.933334 232.53334 79.266663 204.933334 58.733337 C 179.733337 40.066666 148.53334 33 119.866669 39.53334 Z M 155.733337 67 C 182.666672 73.399994 203.733337 95.933334 208 122.600006 C 213.066666 155.133331 190.399994 189.133331 158 197.666656 C 148.266663 200.199997 133.600006 200.199997 124.533333 197.800003 C 99.066666 191 78.666664 167.666656 74.400002 140.733337 C 72.26667 127 74.400002 115.266663 81.73333 100.733337 C 84.800003 94.600006 87.199997 89 87.333336 88.199997 C 87.466667 85 91.066666 80.199997 95.73333 76.866669 C 101.333336 73 105.866669 71 104.666664 73 C 104.133331 73.800003 107.066666 73 110.933334 71.53334 C 126.533333 65.133331 141.333328 63.666672 155.733337 67 Z"/>
        <path id="path1" fill="none" stroke="#000000" stroke-width="3" stroke-linecap="round" stroke-linejoin="round" d="M 110 67 L 91.333336 80.333328 L 87.333336 85.333328 L 86 87"/>
        <path id="Path-copy" fill="none" stroke="#000000" stroke-width="3" stroke-linecap="round" stroke-linejoin="round" d="M 110 69 L 91.333336 82.333328 L 87.333336 87.333328 L 86 89"/>
        <path id="path2" fill="#000000" stroke="none" d="M 134 96.866669 C 116.800003 101.266663 106.800003 114.46666 106.666664 132.46666 C 106.666664 139.933334 107.333336 143.266663 110.133331 148.733337 C 118.800003 166.066666 139.066666 173 156.53334 164.466675 C 188.53334 148.733337 180.133331 99.933334 144.666672 96.46666 C 141.066666 96.066666 136.266663 96.333328 134 96.866669 Z"/>
    </g>
</svg>
