<?xml version="1.0" standalone="no"?>
<!DOCTYPE svg PUBLIC "-//W3C//DTD SVG 20010904//EN"
 "http://www.w3.org/TR/2001/REC-SVG-20010904/DTD/svg10.dtd">
<svg version="1.0" xmlns="http://www.w3.org/2000/svg"
 width="216.000000pt" height="217.000000pt" viewBox="0 0 216.000000 217.000000"
 preserveAspectRatio="xMidYMid meet">

<g transform="translate(0.000000,217.000000) scale(0.100000,-0.100000)"
fill="#000000" stroke="none">
<path d="M899 1871 c-213 -48 -442 -220 -677 -510 -99 -120 -132 -175 -132
-215 0 -63 296 -393 499 -557 115 -94 233 -144 393 -169 84 -13 145 -39 223
-94 153 -110 450 -275 466 -259 5 5 -12 58 -37 118 -101 247 -109 285 -74 377
30 80 109 177 278 343 150 146 202 211 202 252 0 81 -296 416 -503 570 -189
140 -423 193 -638 144z m269 -206 c202 -48 360 -217 392 -417 38 -244 -132
-499 -375 -563 -73 -19 -183 -19 -251 -1 -191 51 -344 226 -376 428 -16 103 0
191 55 300 23 46 41 88 42 94 1 24 28 60 63 85 42 29 76 44 67 29 -4 -6 18 0
47 11 117 48 228 59 336 34z"/>
<path d="M1005 1441 c-129 -33 -204 -132 -205 -267 0 -56 5 -81 26 -122 65
-130 217 -182 348 -118 240 118 177 484 -89 510 -27 3 -63 1 -80 -3z"/>
</g>
</svg>
