<svg aria-hidden="true" width="348" height="260" viewBox="0 0 348 260" fill="none" xmlns="http://www.w3.org/2000/svg">
<g clip-path="url(#clip0_536_5812)">
<path d="M2.40314 142.318C2.40314 107.13 31.4463 75.8578 66.3166 75.8578C72.9821 75.8578 79.4062 76.9025 85.4376 78.8349C92.5164 40.5296 125.811 11.5312 165.825 11.5312C210.994 11.5312 247.608 48.4822 247.608 94.0587C247.608 95.8425 247.546 97.6138 247.436 99.3687C257.891 90.8504 271.193 85.7428 285.678 85.7428C319.325 85.7469 346.597 113.267 346.597 147.216C346.597 177.42 325.008 202.537 296.554 207.711H54.7695C25.4149 202.236 2.40314 173.525 2.40314 142.318Z" fill="#D1F1FF"/>
<line x1="258.716" y1="229.906" x2="303.341" y2="229.906" stroke="#0F141A" stroke-width="1.5"/>
<path fill-rule="evenodd" clip-rule="evenodd" d="M279.69 228.824C279.69 228.824 270.237 231.329 265.651 218.159C265.651 218.159 280.277 214.65 279.69 228.824Z" fill="#00802F" stroke="#0F141A" stroke-width="1.5" stroke-linejoin="round"/>
<path fill-rule="evenodd" clip-rule="evenodd" d="M279.98 228.807C279.98 228.807 278.625 215.897 296.791 212.553C296.791 212.553 298.423 232.463 279.98 228.807Z" fill="#00802F" stroke="#0F141A" stroke-width="1.5" stroke-linejoin="round"/>
<path d="M279.846 173.164C284.631 174.058 294.746 178.626 296.928 189.74" stroke="#006CE0" stroke-width="1.5"/>
<path d="M279.847 177.5C284.611 178.499 293.643 185.794 290.789 199.76" stroke="#006CE0" stroke-width="1.5"/>
<path d="M236.622 147.896L227.789 139.063C225.445 136.72 221.646 136.72 219.303 139.063L210.899 147.467C208.556 149.81 208.556 153.609 210.899 155.952L219.733 164.786C222.076 167.129 225.875 167.129 228.218 164.786L236.622 156.382C238.965 154.038 238.965 150.239 236.622 147.896Z" stroke="#0F141A" stroke-width="1.5" stroke-linecap="round" stroke-linejoin="round"/>
<path d="M251.555 170.43L272.073 171.714L272.4 176.041L242.064 179.92L251.555 170.43Z" fill="#DEDEE3" stroke="#0F141A" stroke-width="1.5" stroke-linecap="round" stroke-linejoin="round"/>
<path d="M272.861 180.056C273.997 180.123 275.18 177.487 275.49 174.168C275.795 170.842 275.131 168.099 273.978 168.026C272.841 167.959 271.659 170.595 271.348 173.915C271.038 177.234 271.707 179.983 272.855 180.05L272.861 180.056Z" fill="white" stroke="#0F141A" stroke-width="1.5"/>
<path d="M252.073 169.97C252.03 170.045 251.977 170.113 251.917 170.174L236.589 185.501C236.199 185.892 235.566 185.892 235.175 185.501L215.346 165.672C214.956 165.282 214.956 164.649 215.346 164.258L230.674 148.931C230.734 148.87 230.803 148.817 230.877 148.774L239.087 143.989C239.479 143.76 239.976 143.825 240.297 144.146L256.702 160.55C257.023 160.871 257.087 161.369 256.858 161.761L252.073 169.97Z" fill="#F3F3F7" stroke="#0F141A" stroke-width="1.5" stroke-linecap="round" stroke-linejoin="round"/>
<path d="M231.188 149.102L252.102 170.015" stroke="#0F141A" stroke-width="1.5" stroke-linecap="square" stroke-linejoin="round"/>
<path d="M126.524 121.151C123.043 124.632 123.11 130.401 126.745 134.036L160.314 167.605C163.949 171.24 169.717 171.306 173.199 167.825C176.68 164.344 176.613 158.576 172.979 154.941L139.41 121.372C135.775 117.737 130.006 117.669 126.524 121.151Z" fill="#DEDEE3" stroke="#0F141A" stroke-width="1.5" stroke-linejoin="round"/>
<path d="M160.253 166.46C162.661 170.629 167.916 172.13 172.144 169.925C172.156 169.918 172.17 169.915 172.183 169.909L172.213 169.89C172.226 169.882 172.24 169.874 172.253 169.867C172.331 169.825 172.409 169.782 172.486 169.737C172.73 169.596 172.965 169.445 173.191 169.285L173.229 169.26L213.07 144.557C216.487 142.439 217.604 137.99 215.594 134.508C213.647 131.136 209.446 129.851 205.965 131.501L205.63 131.67L164.316 153.821L164.275 153.841L163.9 154.025C163.776 154.089 163.653 154.156 163.531 154.227L163.302 154.363C163.289 154.371 163.276 154.379 163.263 154.386L163.229 154.403C163.218 154.411 163.209 154.422 163.198 154.429C159.174 156.988 157.846 162.29 160.253 166.46Z" fill="#F3F3F7" stroke="#0F141A" stroke-width="1.5" stroke-linejoin="round"/>
<path fill-rule="evenodd" clip-rule="evenodd" d="M169.251 158.116C174.16 159.357 172.154 166.845 167.286 165.451C162.376 164.21 164.382 156.723 169.251 158.116Z" fill="#006CE0" stroke="#0F141A" stroke-width="1.5"/>
<path d="M213.578 151.33L204.6 142.836C201.731 140.121 201.709 135.484 204.615 132.578C207.431 129.762 211.871 129.695 214.614 132.302L214.873 132.563L223.367 141.541L213.578 151.33Z" fill="#F3F3F7" stroke="#0F141A" stroke-width="1.5" stroke-linejoin="round"/>
<path d="M222.851 141.925C219.885 138.959 215.422 138.613 212.882 141.153C210.343 143.692 210.689 148.155 213.655 151.121L222.851 141.925Z" fill="#F3F3F7" stroke="#0F141A" stroke-width="1.5" stroke-linejoin="round"/>
<path d="M79.8466 122.97C77.3849 118.707 71.7954 117.278 67.3431 119.849L26.2272 143.587C21.7748 146.157 20.2163 151.713 22.6779 155.977C25.1396 160.24 30.7299 161.668 35.1822 159.098L76.2982 135.359C80.7503 132.789 82.3082 127.234 79.8466 122.97Z" fill="#DEDEE3" stroke="#0F141A" stroke-width="1.5" stroke-linejoin="round"/>
<path d="M23.7274 145.213C20.3228 148.618 20.2332 154.083 23.4581 157.596C23.4674 157.606 23.4742 157.618 23.4829 157.629L23.5092 157.654C23.5202 157.664 23.5312 157.675 23.5416 157.686C23.6024 157.751 23.6643 157.815 23.7274 157.878C23.9271 158.077 24.134 158.265 24.3468 158.442L24.3813 158.472L58.5538 190.562C61.4843 193.314 66.0705 193.241 68.9132 190.399C71.667 187.645 71.8206 183.255 69.3254 180.319L69.0761 180.04L36.987 145.866L36.9566 145.832L36.6825 145.518C36.5884 145.415 36.4916 145.313 36.3918 145.213L36.2005 145.027C36.1896 145.017 36.179 145.007 36.1687 144.996L36.1432 144.967C36.1328 144.959 36.12 144.953 36.11 144.944C32.5969 141.719 27.1321 141.808 23.7274 145.213Z" fill="#F3F3F7" stroke="#0F141A" stroke-width="1.5" stroke-linejoin="round"/>
<path fill-rule="evenodd" clip-rule="evenodd" d="M26.4626 151.743C26.3908 156.806 34.1425 156.806 34.0563 151.743C34.1282 146.679 26.3764 146.679 26.4626 151.743Z" fill="#006CE0" stroke="#0F141A" stroke-width="1.5"/>
<path d="M52.658 204.506C49.5418 202.707 48.3499 198.904 49.8222 195.814L49.973 195.518L57.6074 181.404C59.4868 177.93 63.9609 176.709 67.5203 178.764C70.9682 180.755 72.1826 185.026 70.3742 188.35L70.1893 188.669L61.7836 202.337C59.9144 205.376 55.8746 206.363 52.658 204.506Z" fill="#F3F3F7" stroke="#0F141A" stroke-width="1.5"/>
<path d="M112.727 110.367H94.3722C93.6149 110.367 93.001 111.241 93.001 112.319V117.256C93.001 118.334 93.6149 119.208 94.3722 119.208H112.727C113.485 119.208 114.099 118.334 114.099 117.256V112.319C114.099 111.241 113.485 110.367 112.727 110.367Z" fill="#DEDEE3" stroke="#0F141A" stroke-width="1.5"/>
<path d="M112.727 101.523H94.3722C93.6149 101.523 93.001 102.397 93.001 103.475V108.412C93.001 109.49 93.6149 110.364 94.3722 110.364H112.727C113.485 110.364 114.099 109.49 114.099 108.412V103.475C114.099 102.397 113.485 101.523 112.727 101.523Z" fill="#DEDEE3" stroke="#0F141A" stroke-width="1.5"/>
<path d="M93.5654 110.365V102.117H113.741V105.924L93.5654 110.365Z" fill="#0F141A"/>
<path fill-rule="evenodd" clip-rule="evenodd" d="M81.5456 59.5126L97.1027 55.344C103.344 53.6718 109.842 57.4397 111.788 63.8685L121.189 94.8611C122.082 98.1938 120.204 101.595 116.997 102.454L87.8582 110.262C84.6508 111.121 81.3242 109.115 80.4312 105.782L73.0761 74.2413C71.5542 67.6988 75.2907 61.1885 81.5317 59.5163L81.5456 59.5126Z" fill="#0F141A"/>
<path fill-rule="evenodd" clip-rule="evenodd" d="M86.3199 59.0372L102.519 54.6966C109.018 52.9553 115.682 56.4966 117.579 62.7086L126.745 92.6561C127.608 95.8786 125.599 99.219 122.26 100.114L91.9184 108.244C88.5786 109.139 85.1685 107.25 84.3051 104.028L77.2692 73.5096C75.8137 67.1792 79.8069 60.7823 86.3054 59.0411L86.3199 59.0372Z" fill="#F3F3F7" stroke="#0F141A" stroke-width="1.5"/>
<path d="M125.436 89.4529L117.362 92.4366C108.814 95.5996 100.062 97.1617 91.0678 98.6618L83.6142 99.8984" stroke="#0F141A" stroke-width="1.5"/>
<path d="M95.6907 88.5031C97.4006 88.0449 98.4153 86.2874 97.9572 84.5775C97.499 82.8676 95.7415 81.8529 94.0316 82.311C92.3217 82.7692 91.307 84.5268 91.7651 86.2366C92.2233 87.9465 93.9808 88.9613 95.6907 88.5031Z" fill="#006CE0" stroke="#0F141A" stroke-width="1.5"/>
<path d="M116.553 82.9172C118.263 82.459 119.278 80.7014 118.819 78.9916C118.361 77.2817 116.604 76.2669 114.894 76.7251C113.184 77.1833 112.169 78.9408 112.627 80.6507C113.086 82.3606 114.843 83.3753 116.553 82.9172Z" fill="#006CE0" stroke="#0F141A" stroke-width="1.5"/>
<path d="M103.514 247.095C119.127 247.095 131.785 245.205 131.785 242.876C131.785 240.546 119.127 238.656 103.514 238.656C87.9004 238.656 75.2432 240.546 75.2432 242.876C75.2432 245.205 87.9004 247.095 103.514 247.095Z" fill="#0F141A"/>
<path d="M75.8896 115.352H129.124C134.374 115.352 138.534 119.704 138.369 124.886L138.34 125.389L132.31 195.963C131.547 204.888 124.08 211.744 115.122 211.744H90.4873C81.7241 211.744 74.3775 205.18 73.3564 196.521L73.3125 196.106L66.6807 125.466C66.1715 120.04 70.4398 115.352 75.8896 115.352Z" fill="#F3F3F7" stroke="#0F141A" stroke-width="1.5"/>
<path d="M124.842 146.774H80.4368C78.312 146.774 76.5329 145.146 76.3528 143.028L75.258 130.272C75.0563 127.881 76.9362 125.828 79.342 125.828H125.93C128.328 125.828 130.215 127.881 130.014 130.272L128.919 143.028C128.739 145.146 126.967 146.774 124.835 146.774H124.842Z" fill="#DEDEE3" stroke="#0F141A" stroke-width="1.5"/>
<path d="M119.535 139.216C121.201 139.216 122.553 137.864 122.553 136.198C122.553 134.531 121.201 133.18 119.535 133.18C117.868 133.18 116.517 134.531 116.517 136.198C116.517 137.864 117.868 139.216 119.535 139.216Z" fill="#006CE0" stroke="#0F141A" stroke-width="1.5"/>
<path d="M107.704 135.945H79.6064" stroke="#0F141A" stroke-width="1.5"/>
</g>
<defs>
<clipPath id="clip0_536_5812">
<rect width="348" height="260" fill="white"/>
</clipPath>
</defs>
</svg>
