<svg width="64" height="64" viewBox="0 0 64 64" fill="none" xmlns="http://www.w3.org/2000/svg"><g clip-path="url(#clip0_668_316)"><path d="M15.4238 0V12.41H48.576V0H51.59V12.41H64V15.4238H51.59V48.576H64V51.59H51.59V64H48.576V51.59H15.4238V64H12.41V51.59H0V48.576H12.41V15.4238H0V12.41H12.41V0H15.4238ZM15.4238 48.576H48.576V15.4238H15.4238V48.576Z" fill="#DEDEE3"></path><mask id="mask0_668_316" maskUnits="userSpaceOnUse" x="15" y="15" width="34" height="34" style="mask-type: alpha;"><path d="M48.5762 15.4233H15.4238V48.5757H48.5762V15.4233Z" fill="#D9D9D9"></path></mask><g mask="url(#mask0_668_316)"><path d="M49.0099 11.3777H9.8027V49.4317H49.0099V11.3777Z" fill="url(#paint0_linear_668_316)"></path><path d="M49.0099 11.3777H9.8027V49.4317H49.0099V11.3777Z" fill="url(#paint1_radial_668_316)"></path><path d="M49.0099 11.3777H9.8027V49.4317H49.0099V11.3777Z" fill="url(#paint2_radial_668_316)"></path><path d="M49.0099 11.3777H9.8027V49.4317H49.0099V11.3777Z" fill="url(#paint3_radial_668_316)"></path><path d="M49.0099 11.3777H9.8027V49.4317H49.0099V11.3777Z" fill="url(#paint4_radial_668_316)"></path></g></g><defs><linearGradient id="paint0_linear_668_316" x1="9.8027" y1="49.4317" x2="56.4635" y2="34.1778" gradientUnits="userSpaceOnUse"><stop offset="0.254808" stop-color="#F2ADE5"></stop><stop offset="0.625" stop-color="#ED24E7"></stop></linearGradient><radialGradient id="paint1_radial_668_316" cx="0" cy="0" r="1" gradientUnits="userSpaceOnUse" gradientTransform="translate(13.2768 14.5844) rotate(75.0051) scale(14.3861 432.564)"><stop stop-color="#BF88F4"></stop><stop offset="1" stop-color="#BF88F4" stop-opacity="0"></stop></radialGradient><radialGradient id="paint2_radial_668_316" cx="0" cy="0" r="1" gradientUnits="userSpaceOnUse" gradientTransform="translate(49.0099 49.4317) rotate(-90) scale(34.6335 32.1481)"><stop offset="0.177885" stop-color="#6F6CFA"></stop><stop offset="0.769231" stop-color="#6F6CFA" stop-opacity="0"></stop></radialGradient><radialGradient id="paint3_radial_668_316" cx="0" cy="0" r="1" gradientUnits="userSpaceOnUse" gradientTransform="translate(26.9248 33.8253) rotate(-100.521) scale(21.7442 23.9373)"><stop offset="0.206731" stop-color="#FE96CE"></stop><stop offset="1" stop-color="#FE96CE" stop-opacity="0"></stop></radialGradient><radialGradient id="paint4_radial_668_316" cx="0" cy="0" r="1" gradientUnits="userSpaceOnUse" gradientTransform="translate(19.2323 49.4317) rotate(-58.0843) scale(30.979 12.2949)"><stop stop-color="#EFE0F0"></stop><stop offset="1" stop-color="#EFE0F0" stop-opacity="0"></stop></radialGradient><clipPath id="clip0_668_316"><rect width="64" height="64" fill="white"></rect></clipPath></defs></svg>